<?xml version="1.0" encoding="UTF-8"?><svg id="Layer_1" xmlns="http://www.w3.org/2000/svg" viewBox="0 0 408.43 786.57"><defs><style>.cls-1{fill:none;}.cls-2{fill:#fff;}</style></defs><path d="M251.43,260c-51-15-106-23-106-68,0-39,31-58,63-58,41,0,62,28,62,62h138C400.43,85,337.43,0,204.43,0,93.93,0,4.05,83.74,.14,186.57,.04,188.89,0,191.23,0,193.57,0,193.9,0,194.22,.01,194.55c.06,5.71,.63,11.59,.99,16.91,2.68,39.83,14.76,70.58,35.49,95.42,.32,.4,.66,.8,1,1.2,.17,.2,.34,.4,.51,.6,17.44,20.26,40.76,36.55,69.51,50.62,.33,.16,.66,.33,1,.49,.5,.26,.99,.5,1.49,.73,10.62,5.1,21.95,9.91,34,14.51,.33,.14,.67,.26,1,.39,4.06,1.55,8.21,3.07,12.43,4.58,49,17,108,30,108,75,0,31-23,52-60,52-29.27,0-54.09-20.75-60.43-48.85-.42-1.83-.75-3.7-1-5.59-.38-2.8-.57-5.65-.57-8.56H.43c0,5.46,.19,10.87,.57,16.22,2.67,37.97,14.76,72.92,35.49,101.71,.33,.47,.66,.93,1,1.39,.17,.23,.34,.46,.51,.69,17.45,23.52,40.77,42.78,69.51,56.03,.33,.15,.66,.31,1,.46,.49,.22,.99,.45,1.49,.66,10.62,4.72,21.95,8.62,34,11.63,.33,.09,.67,.17,1,.25,18.52,4.54,38.69,6.96,60.43,6.96,113,0,203-88,203-194,0-94-50-154-157-186ZM205.43,28c117,0,161,81,167,140h-75c-9-25-30-62-92-62V28Zm0,584c-21.45,0-41.79-3.32-60.43-9.31-.33-.11-.67-.22-1-.33-12.11-3.96-23.49-9.07-34-15.12-.5-.29-1-.58-1.49-.87-.33-.2-.67-.39-1-.59-.06-.04-.12-.08-.18-.11-.21-.13-.43-.26-.64-.39-.53-.32-1.06-.65-1.59-.98-.39-.24-.77-.48-1.16-.73-.92-.57-1.82-1.16-2.72-1.75-.42-.28-.83-.55-1.24-.83-.92-.61-1.82-1.23-2.72-1.87-.14-.09-.27-.18-.41-.28-.85-.6-1.7-1.21-2.54-1.83-.48-.34-.95-.69-1.42-1.05-1.3-.98-2.59-1.97-3.85-2.98-.51-.4-1.01-.8-1.51-1.22-3.01-2.45-5.9-4.99-8.68-7.62-.46-.43-.92-.87-1.37-1.32-1.38-1.32-2.72-2.67-4.03-4.04-.88-.91-1.74-1.83-2.58-2.76-1.7-1.86-3.34-3.75-4.93-5.68-.32-.38-.64-.76-.93-1.14-.71-.86-1.39-1.73-2.06-2.61-1.29-1.67-2.54-3.36-3.74-5.07-.02-.01-.03-.03-.04-.05-.59-.84-1.17-1.69-1.74-2.54-.29-.44-.59-.87-.87-1.31-.29-.43-.57-.87-.85-1.31-.54-.84-1.07-1.69-1.59-2.54-.02-.03-.04-.07-.06-.1-.54-.89-1.07-1.78-1.59-2.68-.26-.45-.51-.9-.77-1.35-.25-.45-.5-.91-.75-1.36-.34-.62-.67-1.24-1-1.87-1.24-2.35-2.41-4.73-3.5-7.14-.31-.69-.62-1.39-.92-2.09-.42-.96-.82-1.93-1.22-2.9-.37-.93-.73-1.86-1.08-2.8-.15-.37-.29-.75-.42-1.13-.35-.95-.68-1.89-1-2.85-.21-.64-.42-1.28-.63-1.92-.23-.73-.46-1.45-.68-2.18-.97-3.23-1.8-6.49-2.5-9.79-.18-.84-.35-1.68-.51-2.53-.39-2.04-.72-4.09-1-6.16-.59-4.26-.95-8.57-1.06-12.92H113.43c2.75,10.08,7.64,19.78,14.57,28.43,4.49,5.61,9.84,10.77,16,15.31,.33,.24,.66,.48,1,.72,15.35,10.96,35.65,18.05,60.43,18.54v77Z"/><path class="cls-2" d="M372.43,168h-75c-9-25-30-62-92-62V28c117,0,161,81,167,140Z"/><path class="cls-2" d="M205.43,535v77c-21.45,0-41.79-3.32-60.43-9.31-.33-.11-.67-.22-1-.33v-86.62c.33,.24,.66,.48,1,.72,15.35,10.96,35.65,18.05,60.43,18.54Z"/><path d="M.14,186.57C.04,188.89,0,191.23,0,193.57V786.57H144V186.57H.14ZM107.51,758.57H36.49V484.92c-.59-4.26-.95-8.57-1.06-12.92h1.06V214.57H107.51V758.57Z"/><path class="cls-2" d="M107.51,620.04v138.53H36.49v-196.64c.33,.47,.66,.93,1,1.39,.17,.23,.34,.46,.51,.69,17.45,23.52,40.77,42.78,69.51,56.03Z"/><path class="cls-2" d="M107.51,359.3v84.7H36.49v-137.12c.32,.4,.66,.8,1,1.2,.17,.2,.34,.4,.51,.6,17.44,20.26,40.76,36.55,69.51,50.62Z"/><g><path class="cls-2" d="M36.49,472v12.92c-.59-4.26-.95-8.57-1.06-12.92h1.06Z"/><path class="cls-2" d="M107.51,472v113.78c-.06-.04-.12-.08-.18-.11-.21-.13-.43-.26-.64-.39-.53-.32-1.06-.65-1.59-.98-.39-.24-.77-.48-1.16-.73-.92-.57-1.82-1.16-2.72-1.75-.42-.28-.83-.55-1.24-.83-.92-.61-1.82-1.23-2.72-1.87-.14-.09-.27-.18-.41-.28-.85-.6-1.7-1.21-2.54-1.83-.48-.34-.95-.69-1.42-1.05-1.3-.98-2.59-1.97-3.85-2.98-.51-.4-1.01-.8-1.51-1.22-3.01-2.45-5.9-4.99-8.68-7.62-.46-.43-.92-.87-1.37-1.32-1.38-1.32-2.72-2.67-4.03-4.04-.88-.91-1.74-1.83-2.58-2.76-1.7-1.86-3.34-3.75-4.93-5.68-.32-.38-.64-.76-.93-1.14-.71-.86-1.39-1.73-2.06-2.61-1.29-1.67-2.54-3.36-3.74-5.07-.02-.01-.03-.03-.04-.05-.59-.84-1.17-1.69-1.74-2.54-.29-.44-.59-.87-.87-1.31-.29-.43-.57-.87-.85-1.31-.54-.84-1.07-1.69-1.59-2.54-.02-.03-.04-.07-.06-.1-.54-.89-1.07-1.78-1.59-2.68-.26-.45-.51-.9-.77-1.35-.25-.45-.5-.91-.75-1.36-.34-.62-.67-1.24-1-1.87-1.24-2.35-2.41-4.73-3.5-7.14-.31-.69-.62-1.39-.92-2.09-.42-.96-.82-1.93-1.22-2.9-.37-.93-.73-1.86-1.08-2.8-.15-.37-.29-.75-.42-1.13-.35-.95-.68-1.89-1-2.85-.21-.64-.42-1.28-.63-1.92-.23-.73-.46-1.45-.68-2.18-.97-3.23-1.8-6.49-2.5-9.79-.18-.84-.35-1.68-.51-2.53v-19.08H107.51Z"/><path class="cls-2" d="M37.49,472v19.08c-.39-2.04-.72-4.09-1-6.16v-12.92h1Z"/></g><path class="cls-1" d="M.14,186.57C.04,188.89,0,191.23,0,193.57v-7H.14Z"/><line class="cls-1" y1="194.57" x2="6" y2="185.57"/></svg>